{
  "accessors": [
    {
      "bufferView": 2,
      "componentType": 5126,
      "count": 1074,
      "max": [
        2.844648599624634,
        1.8101423978805542,
        5.026211261749268
      ],
      "min": [
        -2.117701768875122,
        -1.8101423978805542,
        -2.12270450592041
      ],
      "type": "VEC3"
    },
    {
      "bufferView": 2,
      "byteOffset": 12888,
      "componentType": 5126,
      "count": 1074,
      "max": [
        1.0,
        0.9999993443489075,
        0.9999892115592957
      ],
      "min": [
        -1.0,
        -0.9999993443489075,
        -0.9999892711639404
      ],
      "type": "VEC3"
    },
    {
      "bufferView": 3,
      "componentType": 5126,
      "count": 1074,
      "max": [
        0.999939501285553,
        0.999932050704956,
        0.9999620914459229,
        1.0
      ],
      "min": [
        -0.999939501285553,
        -0.9999964237213135,
        -0.9999993443489075,
        1.0
      ],
      "type": "VEC4"
    },
    {
      "bufferView": 1,
      "componentType": 5126,
      "count": 1074,
      "max": [
        0.9892106056213379,
        0.9720423221588135
      ],
      "min": [
        0.011579960584640503,
        0.00910051167011261
      ],
      "type": "VEC2"
    },
    {
      "bufferView": 2,
      "byteOffset": 25776,
      "componentType": 5126,
      "count": 1074,
      "max": [
        0.4549914598464966,
        0.829667866230011,
        0.35266196727752686
      ],
      "min": [
        -0.37858009338378906,
        -0.05623610317707062,
        -0.3340878486633301
      ],
      "type": "VEC3"
    },
    {
      "bufferView": 2,
      "byteOffset": 38664,
      "componentType": 5126,
      "count": 1074,
      "max": [
        0.8483946323394775,
        0.6106795072555542,
        0.489410936832428
      ],
      "min": [
        -0.6499188542366028,
        -0.8549051880836487,
        -0.8935952186584473
      ],
      "type": "VEC3"
    },
    {
      "bufferView": 2,
      "byteOffset": 51552,
      "componentType": 5126,
      "count": 1074,
      "max": [
        0.6467971801757813,
        0.36273014545440674,
        0.2125246673822403
      ],
      "min": [
        -0.4917452037334442,
        -0.6867732405662537,
        -0.7921075820922852
      ],
      "type": "VEC3"
    },
    {
      "bufferView": 2,
      "byteOffset": 64440,
      "componentType": 5126,
      "count": 1074,
      "max": [
        0.9010626077651978,
        0.9010624885559082,
        0.026180744171142578
      ],
      "min": [
        -0.9010624885559082,
        -0.9010626077651978,
        -0.31703686714172363
      ],
      "type": "VEC3"
    },
    {
      "bufferView": 2,
      "byteOffset": 77328,
      "componentType": 5126,
      "count": 1074,
      "max": [
        0.2042405605316162,
        0.20423972606658936,
        0.2853126525878906
      ],
      "min": [
        -0.20423996448516846,
        -0.20423895120620728,
        -0.3782092034816742
      ],
      "type": "VEC3"
    },
    {
      "bufferView": 2,
      "byteOffset": 90216,
      "componentType": 5126,
      "count": 1074,
      "max": [
        0.4173406958580017,
        0.41375207901000977,
        0.13839346170425415
      ],
      "min": [
        -0.4173387885093689,
        -0.4191220998764038,
        -0.13076603412628174
      ],
      "type": "VEC3"
    },
    {
      "bufferView": 2,
      "byteOffset": 103104,
      "componentType": 5126,
      "count": 1074,
      "max": [
        1.0177218914031982,
        1.0177220106124878,
        2.9802322387695313e-08
      ],
      "min": [
        -1.017722249031067,
        -1.0177220106124878,
        -5.960464477539063e-08
      ],
      "type": "VEC3"
    },
    {
      "bufferView": 2,
      "byteOffset": 115992,
      "componentType": 5126,
      "count": 1074,
      "max": [
        0.5818923711776733,
        0.2852843403816223,
        0.6380462646484375
      ],
      "min": [
        -0.26130837202072144,
        -0.2852834463119507,
        -0.5156102180480957
      ],
      "type": "VEC3"
    },
    {
      "bufferView": 2,
      "byteOffset": 128880,
      "componentType": 5126,
      "count": 1074,
      "max": [
        0.5969828963279724,
        0.5439994931221008,
        0.2914206385612488
      ],
      "min": [
        -0.4430328607559204,
        -0.5537801384925842,
        -0.34089726209640503
      ],
      "type": "VEC3"
    },
    {
      "bufferView": 0,
      "componentType": 5125,
      "count": 5052,
      "type": "SCALAR"
    },
    {
      "bufferView": 2,
      "byteOffset": 141768,
      "componentType": 5126,
      "count": 1854,
      "max": [
        4.223611831665039,
        2.3444995880126953,
        2.374537467956543
      ],
      "min": [
        2.3630335330963135,
        0.46474406123161316,
        1.3247606754302979
      ],
      "type": "VEC3"
    },
    {
      "bufferView": 2,
      "byteOffset": 164016,
      "componentType": 5126,
      "count": 1854,
      "max": [
        1.0,
        0.9999963641166687,
        0.9999963641166687
      ],
      "min": [
        -1.0,
        -1.0,
        -0.9999963641166687
      ],
      "type": "VEC3"
    },
    {
      "bufferView": 3,
      "byteOffset": 17184,
      "componentType": 5126,
      "count": 1854,
      "max": [
        1.0,
        0.9999963641166687,
        0.9999513626098633,
        1.0
      ],
      "min": [
        -0.9999996423721313,
        -0.999995231628418,
        -1.0,
        -1.0
      ],
      "type": "VEC4"
    },
    {
      "bufferView": 1,
      "byteOffset": 8592,
      "componentType": 5126,
      "count": 1854,
      "max": [
        0.9119217395782471,
        0.9567784667015076
      ],
      "min": [
        0.03166397288441658,
        0.47702574729919434
      ],
      "type": "VEC2"
    },
    {
      "bufferView": 0,
      "byteOffset": 20208,
      "componentType": 5125,
      "count": 2754,
      "type": "SCALAR"
    },
    {
      "bufferView": 2,
      "byteOffset": 186264,
      "componentType": 5126,
      "count": 889,
      "max": [
        2.708789587020874,
        0.20514129102230072,
        0.20526066422462463
      ],
      "min": [
        2.0104355812072754,
        -1.4602653980255127,
        -0.20413517951965332
      ],
      "type": "VEC3"
    },
    {
      "bufferView": 2,
      "byteOffset": 196932,
      "componentType": 5126,
      "count": 889,
      "max": [
        1.0,
        0.9750187397003174,
        1.0
      ],
      "min": [
        -1.0,
        -0.9999963045120239,
        -1.0
      ],
      "type": "VEC3"
    },
    {
      "bufferView": 3,
      "byteOffset": 46848,
      "componentType": 5126,
      "count": 889,
      "max": [
        1.0,
        1.0,
        0.9891951084136963,
        1.0
      ],
      "min": [
        -1.0,
        -1.0,
        -0.9999976754188538,
        1.0
      ],
      "type": "VEC4"
    },
    {
      "bufferView": 1,
      "byteOffset": 23424,
      "componentType": 5126,
      "count": 889,
      "max": [
        0.0,
        0.0
      ],
      "min": [
        0.0,
        0.0
      ],
      "type": "VEC2"
    },
    {
      "bufferView": 0,
      "byteOffset": 31224,
      "componentType": 5125,
      "count": 3108,
      "type": "SCALAR"
    },
    {
      "bufferView": 2,
      "byteOffset": 207600,
      "componentType": 5126,
      "count": 96,
      "max": [
        1.656972885131836,
        -0.3243698477745056,
        1.6637457609176636
      ],
      "min": [
        -1.656972885131836,
        -0.7044954299926758,
        -1.6637455224990845
      ],
      "type": "VEC3"
    },
    {
      "bufferView": 2,
      "byteOffset": 208752,
      "componentType": 5126,
      "count": 96,
      "max": [
        1.0,
        1.0,
        1.0
      ],
      "min": [
        -1.0,
        0.0,
        -1.0
      ],
      "type": "VEC3"
    },
    {
      "bufferView": 3,
      "byteOffset": 61072,
      "componentType": 5126,
      "count": 96,
      "max": [
        0.8350911736488342,
        0.9708392024040222,
        0.11986337602138519,
        1.0
      ],
      "min": [
        -0.13317978382110596,
        -0.9711588025093079,
        -0.8443361520767212,
        1.0
      ],
      "type": "VEC4"
    },
    {
      "bufferView": 1,
      "byteOffset": 30536,
      "componentType": 5126,
      "count": 96,
      "max": [
        0.6993130445480347,
        0.9869546890258789
      ],
      "min": [
        0.48530513048171997,
        0.7714694142341614
      ],
      "type": "VEC2"
    },
    {
      "bufferView": 0,
      "byteOffset": 43656,
      "componentType": 5125,
      "count": 534,
      "type": "SCALAR"
    },
    {
      "bufferView": 2,
      "byteOffset": 209904,
      "componentType": 5126,
      "count": 3204,
      "max": [
        2.9361414909362793,
        3.3097634315490723,
        1.7809019088745117
      ],
      "min": [
        -2.9186489582061768,
        -2.770786762237549,
        -2.4154903888702393
      ],
      "type": "VEC3"
    },
    {
      "bufferView": 2,
      "byteOffset": 248352,
      "componentType": 5126,
      "count": 3204,
      "max": [
        1.0,
        0.9999963641166687,
        0.9999977946281433
      ],
      "min": [
        -1.0,
        -0.9999963641166687,
        -0.9999963641166687
      ],
      "type": "VEC3"
    },
    {
      "bufferView": 3,
      "byteOffset": 62608,
      "componentType": 5126,
      "count": 3204,
      "max": [
        1.0,
        0.9999963641166687,
        0.9999982118606567,
        1.0
      ],
      "min": [
        -1.0,
        -0.9999982118606567,
        -0.9999978542327881,
        -1.0
      ],
      "type": "VEC4"
    },
    {
      "bufferView": 1,
      "byteOffset": 31304,
      "componentType": 5126,
      "count": 3204,
      "max": [
        0.9979646801948547,
        0.8686335682868958
      ],
      "min": [
        0.005613215267658234,
        0.00527157774195075
      ],
      "type": "VEC2"
    },
    {
      "bufferView": 1,
      "byteOffset": 56936,
      "componentType": 5126,
      "count": 3204,
      "max": [
        1.4945473670959473,
        2.486881971359253
      ],
      "min": [
        -0.4998445212841034,
        -1.4984153509140015
      ],
      "type": "VEC2"
    },
    {
      "bufferView": 0,
      "byteOffset": 45792,
      "componentType": 5125,
      "count": 4662,
      "type": "SCALAR"
    },
    {
      "bufferView": 4,
      "componentType": 5126,
      "count": 123,
      "max": [
        1.6666666269302368
      ],
      "min": [
        0.1111111119389534
      ],
      "type": "SCALAR"
    },
    {
      "bufferView": 5,
      "componentType": 5126,
      "count": 123,
      "max": [
        0.0,
        0.4145680069923401,
        -0.0796068012714386
      ],
      "min": [
        -0.1378830373287201,
        0.4145680069923401,
        -0.1592136025428772
      ],
      "type": "VEC3"
    },
    {
      "bufferView": 4,
      "byteOffset": 492,
      "componentType": 5126,
      "count": 123,
      "max": [
        1.6666666269302368
      ],
      "min": [
        0.1111111119389534
      ],
      "type": "SCALAR"
    },
    {
      "bufferView": 6,
      "componentType": 5126,
      "count": 123,
      "max": [
        -9.69189797861425e-11,
        0.48208051919937134,
        0.18346871435642242,
        1.0
      ],
      "min": [
        -0.33813050389289856,
        0.0,
        -1.8521014388738474e-18,
        0.8088459372520447
      ],
      "type": "VEC4"
    },
    {
      "bufferView": 4,
      "byteOffset": 984,
      "componentType": 5126,
      "count": 123,
      "max": [
        1.6666666269302368
      ],
      "min": [
        0.1111111119389534
      ],
      "type": "SCALAR"
    },
    {
      "bufferView": 6,
      "byteOffset": 1968,
      "componentType": 5126,
      "count": 123,
      "max": [
        -0.613206684589386,
        0.35307109355926514,
        0.35403501987457275,
        0.706142246723175
      ],
      "min": [
        -0.7080700397491455,
        0.0,
        -0.0,
        0.6115370988845825
      ],
      "type": "VEC4"
    },
    {
      "bufferView": 4,
      "byteOffset": 1476,
      "componentType": 5126,
      "count": 123,
      "max": [
        1.6666666269302368
      ],
      "min": [
        0.1111111119389534
      ],
      "type": "SCALAR"
    },
    {
      "bufferView": 6,
      "byteOffset": 3936,
      "componentType": 5126,
      "count": 123,
      "max": [
        -0.6132066249847412,
        0.3530711233615875,
        0.35403504967689514,
        0.706142246723175
      ],
      "min": [
        -0.7080700397491455,
        0.0,
        -0.0,
        0.6115370392799377
      ],
      "type": "VEC4"
    },
    {
      "bufferView": 4,
      "byteOffset": 1968,
      "componentType": 5126,
      "count": 61,
      "max": [
        1.6666666269302368
      ],
      "min": [
        0.1111111119389534
      ],
      "type": "SCALAR"
    },
    {
      "bufferView": 4,
      "byteOffset": 2212,
      "componentType": 5126,
      "count": 183,
      "max": [
        1.0
      ],
      "min": [
        0.0
      ],
      "type": "SCALAR"
    }
  ],
  "animations": [
    {
      "channels": [
        {
          "sampler": 0,
          "target": {
            "node": 3,
            "path": "translation"
          }
        },
        {
          "sampler": 1,
          "target": {
            "node": 3,
            "path": "rotation"
          }
        },
        {
          "sampler": 2,
          "target": {
            "node": 5,
            "path": "rotation"
          }
        },
        {
          "sampler": 3,
          "target": {
            "node": 11,
            "path": "rotation"
          }
        },
        {
          "sampler": 4,
          "target": {
            "node": 4,
            "path": "weights"
          }
        }
      ],
      "name": "Animation",
      "samplers": [
        {
          "input": 35,
          "interpolation": "LINEAR",
          "output": 36
        },
        {
          "input": 37,
          "interpolation": "LINEAR",
          "output": 38
        },
        {
          "input": 39,
          "interpolation": "LINEAR",
          "output": 40
        },
        {
          "input": 41,
          "interpolation": "LINEAR",
          "output": 42
        },
        {
          "input": 43,
          "interpolation": "LINEAR",
          "output": 44
        }
      ]
    }
  ],
  "asset": {
    "extras": {
      "author": "Dondoron (https://sketchfab.com/Dondoron)",
      "license": "CC-BY-4.0 (http://creativecommons.org/licenses/by/4.0/)",
      "source": "https://sketchfab.com/3d-models/shooting-cannon-155197d4971f423a89c3f860524cea46",
      "title": "Shooting Cannon"
    },
    "generator": "Sketchfab-12.64.0",
    "version": "2.0"
  },
  "bufferViews": [
    {
      "buffer": 0,
      "byteLength": 64440,
      "name": "floatBufferViews",
      "target": 34963
    },
    {
      "buffer": 0,
      "byteLength": 82568,
      "byteOffset": 64440,
      "byteStride": 8,
      "name": "floatBufferViews",
      "target": 34962
    },
    {
      "buffer": 0,
      "byteLength": 286800,
      "byteOffset": 147008,
      "byteStride": 12,
      "name": "floatBufferViews",
      "target": 34962
    },
    {
      "buffer": 0,
      "byteLength": 113872,
      "byteOffset": 433808,
      "byteStride": 16,
      "name": "floatBufferViews",
      "target": 34962
    },
    {
      "buffer": 0,
      "byteLength": 2944,
      "byteOffset": 547680,
      "name": "floatBufferViews"
    },
    {
      "buffer": 0,
      "byteLength": 1476,
      "byteOffset": 550624,
      "byteStride": 12,
      "name": "floatBufferViews"
    },
    {
      "buffer": 0,
      "byteLength": 5904,
      "byteOffset": 552100,
      "byteStride": 16,
      "name": "floatBufferViews"
    }
  ],
  "buffers": [
    {
      "byteLength": 558004,
      "uri": "scene.bin"
    }
  ],
  "images": [
    {
      "uri": "textures/Cannon.001_baseColor.png"
    },
    {
      "uri": "textures/Cannon.001_normal.png"
    },
    {
      "uri": "textures/IronMetal_emissive.png"
    },
    {
      "uri": "textures/Frame_normal.png"
    }
  ],
  "materials": [
    {
      "doubleSided": true,
      "emissiveTexture": {
        "index": 0
      },
      "name": "Cannon.001",
      "normalTexture": {
        "index": 1
      },
      "pbrMetallicRoughness": {
        "baseColorTexture": {
          "index": 0
        },
        "roughnessFactor": 0.7070101356486633
      }
    },
    {
      "doubleSided": true,
      "name": "Cannon",
      "normalTexture": {
        "index": 1
      },
      "pbrMetallicRoughness": {
        "baseColorTexture": {
          "index": 0
        },
        "metallicFactor": 0.0,
        "roughnessFactor": 0.5
      }
    },
    {
      "doubleSided": true,
      "emissiveFactor": [
        1.0,
        1.0,
        1.0
      ],
      "emissiveTexture": {
        "index": 2
      },
      "name": "IronMetal",
      "normalTexture": {
        "index": 1
      },
      "pbrMetallicRoughness": {
        "baseColorTexture": {
          "index": 0
        },
        "metallicFactor": 0.0,
        "roughnessFactor": 0.7252506551386584
      }
    },
    {
      "doubleSided": true,
      "emissiveFactor": [
        0.321109145188455,
        0.321109145188455,
        0.321109145188455
      ],
      "emissiveTexture": {
        "index": 2
      },
      "name": "Frame",
      "normalTexture": {
        "index": 3
      },
      "pbrMetallicRoughness": {
        "baseColorTexture": {
          "index": 2
        },
        "metallicFactor": 0.0,
        "roughnessFactor": 0.457723036
      }
    }
  ],
  "meshes": [
    {
      "name": "mesh_0",
      "primitives": [
        {
          "attributes": {
            "NORMAL": 1,
            "POSITION": 0,
            "TANGENT": 2,
            "TEXCOORD_0": 3
          },
          "indices": 13,
          "material": 0,
          "mode": 4,
          "targets": [
            {
              "NORMAL": 5,
              "POSITION": 4,
              "TANGENT": 6
            },
            {
              "NORMAL": 8,
              "POSITION": 7,
              "TANGENT": 9
            },
            {
              "NORMAL": 11,
              "POSITION": 10,
              "TANGENT": 12
            }
          ]
        }
      ],
      "weights": [
        0.0,
        0.0,
        0.0
      ]
    },
    {
      "name": "Object_1",
      "primitives": [
        {
          "attributes": {
            "NORMAL": 15,
            "POSITION": 14,
            "TANGENT": 16,
            "TEXCOORD_0": 17
          },
          "indices": 18,
          "material": 1,
          "mode": 4
        }
      ]
    },
    {
      "name": "Object_2",
      "primitives": [
        {
          "attributes": {
            "NORMAL": 20,
            "POSITION": 19,
            "TANGENT": 21,
            "TEXCOORD_0": 22
          },
          "indices": 23,
          "material": 2,
          "mode": 4
        }
      ]
    },
    {
      "name": "Object_3",
      "primitives": [
        {
          "attributes": {
            "NORMAL": 25,
            "POSITION": 24,
            "TANGENT": 26,
            "TEXCOORD_0": 27
          },
          "indices": 28,
          "material": 3,
          "mode": 4
        }
      ]
    },
    {
      "name": "Object_4",
      "primitives": [
        {
          "attributes": {
            "NORMAL": 30,
            "POSITION": 29,
            "TANGENT": 31,
            "TEXCOORD_0": 32,
            "TEXCOORD_1": 33
          },
          "indices": 34,
          "material": 3,
          "mode": 4
        }
      ]
    }
  ],
  "nodes": [
    {
      "children": [
        1
      ],
      "matrix": [
        1.0,
        0.0,
        0.0,
        0.0,
        0.0,
        2.220446049250313e-16,
        -1.0,
        0.0,
        0.0,
        1.0,
        2.220446049250313e-16,
        0.0,
        0.0,
        0.0,
        0.0,
        1.0
      ],
      "name": "Sketchfab_model"
    },
    {
      "children": [
        2
      ],
      "name": "root"
    },
    {
      "children": [
        3,
        5,
        7,
        9,
        11
      ],
      "matrix": [
        1.0,
        0.0,
        0.0,
        0.0,
        0.0,
        2.220446049250313e-16,
        1.0,
        0.0,
        0.0,
        -1.0,
        2.220446049250313e-16,
        0.0,
        0.0,
        0.0,
        0.0,
        1.0
      ],
      "name": "GLTF_SceneRootNode"
    },
    {
      "children": [
        4
      ],
      "name": "cag_0",
      "scale": [
        0.15476936101913452,
        0.15476936101913452,
        0.15476936101913452
      ],
      "translation": [
        0.0,
        0.4145680069923401,
        -0.1592136025428772
      ]
    },
    {
      "mesh": 0,
      "name": "mesh_0"
    },
    {
      "children": [
        6
      ],
      "name": "Circle.004_1",
      "rotation": [
        -0.7080699801445007,
        0.0,
        0.0,
        0.7061423063278198
      ],
      "scale": [
        0.15476936101913452,
        0.15476937592029572,
        0.15476937592029572
      ]
    },
    {
      "mesh": 1,
      "name": "Object_6"
    },
    {
      "children": [
        8
      ],
      "matrix": [
        -0.15476936101913452,
        -0.0,
        0.0,
        -0.0,
        0.0,
        0.15476934611797333,
        0.0,
        0.0,
        0.0,
        0.0,
        0.15476934611797333,
        0.0,
        0.0,
        0.4145680069923401,
        -0.1592136025428772,
        1.0
      ],
      "name": "cag.002_2"
    },
    {
      "mesh": 2,
      "name": "Object_8"
    },
    {
      "children": [
        10
      ],
      "matrix": [
        0.32175564765930176,
        0.0,
        0.0,
        0.0,
        0.0,
        0.32175564765930176,
        0.0,
        0.0,
        0.0,
        0.0,
        0.32175564765930176,
        0.0,
        0.0,
        -0.1795327067375183,
        0.0,
        1.0
      ],
      "name": "Circle.008_3"
    },
    {
      "mesh": 3,
      "name": "Object_10"
    },
    {
      "children": [
        12
      ],
      "name": "Frame_4",
      "rotation": [
        -0.7080699801445007,
        0.0,
        0.0,
        0.7061423063278198
      ],
      "scale": [
        0.15476936101913452,
        0.15476937592029572,
        0.15476937592029572
      ]
    },
    {
      "mesh": 4,
      "name": "Object_12"
    }
  ],
  "samplers": [
    {
      "magFilter": 9729,
      "minFilter": 9987,
      "wrapS": 10497,
      "wrapT": 10497
    }
  ],
  "scene": 0,
  "scenes": [
    {
      "name": "Sketchfab_Scene",
      "nodes": [
        0
      ]
    }
  ],
  "textures": [
    {
      "sampler": 0,
      "source": 0
    },
    {
      "sampler": 0,
      "source": 1
    },
    {
      "sampler": 0,
      "source": 2
    },
    {
      "sampler": 0,
      "source": 3
    }
  ]
}
